<?xml version="1.0" encoding="utf-8"?>
<!-- Generator: Adobe Illustrator 19.2.1, SVG Export Plug-In . SVG Version: 6.00 Build 0)  -->
<svg version="1.1" id="Layer_1" xmlns="http://www.w3.org/2000/svg" xmlns:xlink="http://www.w3.org/1999/xlink" x="0px" y="0px"
	 width="20px" height="20px" viewBox="0 0 20 20" style="enable-background:new 0 0 20 20;" xml:space="preserve">
<g>
	<rect x="5" y="5" style="fill:#4EB8D1;" width="6" height="2"/>
	<path style="fill:#4EB8D1;" d="M11,6v1H6V6H11 M12,5H5v3h7V5L12,5z"/>
</g>
<g>
	<rect x="5" y="17" style="fill:#808080;" width="7" height="3"/>
</g>
<g>
	<rect x="6" y="1" style="fill:#808080;" width="6" height="2"/>
	<path style="fill:#4EB8D1;" d="M11,1v2H6V1H11 M12,0H5v4h7V0L12,0z"/>
</g>
<g>
	<rect x="13" y="5" style="fill:#36828E;" width="7" height="3"/>
</g>
<g>
	<rect x="5" y="9" style="fill:#666666;" width="7" height="3"/>
</g>
<g>
	<rect x="5" y="13" style="fill:#666666;" width="7" height="3"/>
</g>
<g>
	<rect x="14" y="1" style="fill:#808080;" width="5" height="2"/>
	<path style="fill:#808080;" d="M19,1v2h-5V1H19 M20,0h-7v4h7V0L20,0z"/>
</g>
<g>
	<rect x="13" y="17" style="fill:#808080;" width="7" height="3"/>
</g>
<g>
	<rect y="5" style="fill:#36828E;" width="4" height="3"/>
</g>
<g>
	<rect y="9" style="fill:#666666;" width="4" height="3"/>
</g>
<g>
	<rect y="13" style="fill:#666666;" width="4" height="3"/>
</g>
<g>
	<rect x="1" y="1" style="fill:#808080;" width="2" height="2"/>
	<path style="fill:#808080;" d="M3,1v2H1V1H3 M4,0H0v4h4V0L4,0z"/>
</g>
<g>
	<rect y="17" style="fill:#808080;" width="4" height="3"/>
</g>
<line style="fill:none;stroke:#4EB8D1;stroke-miterlimit:10;" x1="8.5" y1="7" x2="8.5" y2="16"/>
<polyline style="fill:none;stroke:#4EB8D1;stroke-miterlimit:10;" points="12.3,12.3 8.5,16 4.7,12.5 "/>
<g>
	<rect x="13" y="9" style="fill:#666666;" width="7" height="3"/>
</g>
<g>
	<rect x="13" y="13" style="fill:#666666;" width="7" height="3"/>
</g>
</svg>
