<?xml version="1.0" encoding="utf-8"?>
<!-- Generator: Adobe Illustrator 19.2.1, SVG Export Plug-In . SVG Version: 6.00 Build 0)  -->
<svg version="1.1" id="Layer_1" xmlns="http://www.w3.org/2000/svg" xmlns:xlink="http://www.w3.org/1999/xlink" x="0px" y="0px"
	 viewBox="0 0 20 20" style="enable-background:new 0 0 20 20;" xml:space="preserve">
<g>
	<g>
		<g>
			<path style="fill:#888888;" d="M4.6,4.2H1.5c-0.6,0-1-0.5-1-1V3.1c0-0.6,0.5-1,1-1h3.1c0.6,0,1,0.5,1,1v0.1
				C5.6,3.7,5.2,4.2,4.6,4.2z"/>
		</g>
		<g>
			<path style="fill:#888888;" d="M4.6,18H1.5c-0.6,0-1-0.5-1-1v-0.1c0-0.6,0.5-1,1-1h3.1c0.6,0,1,0.5,1,1v0.1
				C5.6,17.5,5.2,18,4.6,18z"/>
		</g>
		<g>
			<path style="fill:#888888;" d="M4.6,14.5H1.5c-0.6,0-1-0.5-1-1v-0.1c0-0.6,0.5-1,1-1h3.1c0.6,0,1,0.5,1,1v0.1
				C5.6,14,5.2,14.5,4.6,14.5z"/>
		</g>
		<g>
			<path style="fill:#888888;" d="M4.6,11.1H1.5c-0.6,0-1-0.5-1-1V10c0-0.6,0.5-1,1-1h3.1c0.6,0,1,0.5,1,1V10
				C5.6,10.6,5.2,11.1,4.6,11.1z"/>
		</g>
		<g>
			<path style="fill:#888888;" d="M4.6,7.6H1.5c-0.6,0-1-0.5-1-1V6.5c0-0.6,0.5-1,1-1h3.1c0.6,0,1,0.5,1,1v0.1
				C5.6,7.1,5.2,7.6,4.6,7.6z"/>
		</g>
	</g>
	<g>
		<path style="fill:#888888;" d="M18.9,2.7v0.9H15V2.7H18.9 M19.1,2h-4.3c-0.2,0-0.4,0.2-0.4,0.4v1.3c0,0.2,0.2,0.4,0.4,0.4h4.3
			c0.2,0,0.4-0.2,0.4-0.4V2.5C19.5,2.2,19.3,2,19.1,2L19.1,2z"/>
		<path style="fill:#888888;" d="M18.9,16.5v0.9H15v-0.9H18.9 M19.1,15.8h-4.3c-0.2,0-0.4,0.2-0.4,0.4v1.3c0,0.2,0.2,0.4,0.4,0.4
			h4.3c0.2,0,0.4-0.2,0.4-0.4v-1.3C19.5,16,19.3,15.8,19.1,15.8L19.1,15.8z"/>
		<path style="fill:#888888;" d="M18.9,13v0.9H15V13H18.9 M19.1,12.4h-4.3c-0.2,0-0.4,0.2-0.4,0.4v1.3c0,0.2,0.2,0.4,0.4,0.4h4.3
			c0.2,0,0.4-0.2,0.4-0.4v-1.3C19.5,12.6,19.3,12.4,19.1,12.4L19.1,12.4z"/>
		<path style="fill:#888888;" d="M18.9,9.6v0.9H15V9.6H18.9 M19.1,8.9h-4.3c-0.2,0-0.4,0.2-0.4,0.4v1.3c0,0.2,0.2,0.4,0.4,0.4h4.3
			c0.2,0,0.4-0.2,0.4-0.4V9.4C19.5,9.1,19.3,8.9,19.1,8.9L19.1,8.9z"/>
		<path style="fill:#888888;" d="M18.9,6.1V7H15V6.1H18.9 M19.1,5.5h-4.3c-0.2,0-0.4,0.2-0.4,0.4v1.3c0,0.2,0.2,0.4,0.4,0.4h4.3
			c0.2,0,0.4-0.2,0.4-0.4V5.9C19.5,5.7,19.3,5.5,19.1,5.5L19.1,5.5z"/>
	</g>
	<g>
		<g>
			<path style="fill:#888888;" d="M11.5,4.2H8.5c-0.6,0-1-0.5-1-1V3.1c0-0.6,0.5-1,1-1h3.1c0.6,0,1,0.5,1,1v0.1
				C12.6,3.7,12.1,4.2,11.5,4.2z"/>
		</g>
		<g>
			<path style="fill:#888888;" d="M11.5,18H8.5c-0.6,0-1-0.5-1-1v-0.1c0-0.6,0.5-1,1-1h3.1c0.6,0,1,0.5,1,1v0.1
				C12.6,17.5,12.1,18,11.5,18z"/>
		</g>
		<g>
			<path style="fill:#888888;" d="M11.5,14.5H8.5c-0.6,0-1-0.5-1-1v-0.1c0-0.6,0.5-1,1-1h3.1c0.6,0,1,0.5,1,1v0.1
				C12.6,14,12.1,14.5,11.5,14.5z"/>
		</g>
		<g>
			<path style="fill:#888888;" d="M11.5,11.1H8.5c-0.6,0-1-0.5-1-1V10c0-0.6,0.5-1,1-1h3.1c0.6,0,1,0.5,1,1V10
				C12.6,10.6,12.1,11.1,11.5,11.1z"/>
		</g>
		<g>
			<path style="fill:#888888;" d="M11.5,7.6H8.5c-0.6,0-1-0.5-1-1V6.5c0-0.6,0.5-1,1-1h3.1c0.6,0,1,0.5,1,1v0.1
				C12.6,7.1,12.1,7.6,11.5,7.6z"/>
		</g>
	</g>
</g>
</svg>
